<?xml version="1.0" encoding="UTF-8" standalone="no"?>
<svg width="272px" height="142px" viewBox="0 0 272 142" version="1.1" xmlns="http://www.w3.org/2000/svg" xmlns:xlink="http://www.w3.org/1999/xlink">
    <!-- Generator: Sketch 39.1 (31720) - http://www.bohemiancoding.com/sketch -->
    <title>Logo  - white</title>
    <desc>Created with Sketch.</desc>
    <defs></defs>
    <g id="1-Logo" stroke="none" stroke-width="1" fill="none" fill-rule="evenodd">
        <g id="Logo----white" fill="#FFFFFF">
            <path d="M58.7107589,54.85354 C57.8642835,54.85354 56.9835016,54.4756339 56.1623831,53.7615628 L42.8693633,42.202258 C42.4345658,41.8243519 42.3957845,41.2280504 42.7739017,40.7524999 L43.9149655,39.3154133 C44.0872437,39.0985086 44.3646788,38.974776 44.6756747,38.974776 C44.9322275,38.974776 45.1813225,39.0634759 45.3595671,39.2185143 L57.8434012,50.0726926 L59.143319,31.4941735 C59.1850834,30.897872 59.6981892,30.5415818 60.1702764,30.5415818 L62.083982,30.6720228 C62.3569423,30.6906572 62.6067831,30.8173713 62.7865193,31.0275676 C62.9662555,31.2362731 63.0542591,31.5001365 63.0356142,31.769963 L61.6394892,51.5880438 C61.5045006,53.5111162 60.3000444,54.85354 58.7107589,54.85354 L58.7107589,54.85354 Z M68.9445346,54.85354 C67.3559949,54.85354 66.1515387,53.5111162 66.0165501,51.5880438 L64.620425,31.769963 C64.6010344,31.5001365 64.689038,31.2362731 64.8687742,31.0275676 C65.0492562,30.8173713 65.2990969,30.6906572 65.5713115,30.6720228 C65.5713115,30.6720228 67.4201331,30.5430726 67.4216247,30.5430726 C67.9608332,30.5430726 68.4709558,30.9001081 68.5127203,31.4949189 L69.812638,50.0726926 L82.2964721,39.2185143 C82.4747167,39.0634759 82.7238117,38.974776 82.9803646,38.974776 C83.2913604,38.974776 83.5680497,39.0985086 83.740328,39.3154133 L84.8821375,40.7524999 C85.2602547,41.2287957 85.2214735,41.8250973 84.786676,42.202258 L71.4936561,53.7615628 C70.6725377,54.4756339 69.79101,54.85354 68.9445346,54.85354 L68.9445346,54.85354 Z M31.1589168,63.5602875 C30.6197082,63.5602875 30.1685033,63.1413857 30.1312136,62.6069504 L30.0021914,60.762888 C29.9686307,60.2709392 30.3221367,59.7126519 30.9538236,59.6679293 L49.5427218,58.3687374 L38.6824796,45.8918736 C38.5057266,45.6891311 38.4162314,45.3954526 38.44308,45.1062463 C38.4676912,44.8341838 38.5870181,44.6008808 38.7794328,44.4480785 L40.2173223,43.3076519 C40.4321107,43.1369606 40.6722562,43.04677 40.9116558,43.04677 C41.1995321,43.04677 41.4687634,43.1734841 41.6678903,43.4030601 L53.2336528,56.6886579 C54.2546439,57.8603904 54.5798097,59.161073 54.1263674,60.2560317 C53.6744167,61.3465181 52.5281324,62.0590984 51.0589196,62.1627058 L31.2297671,63.5580513 L31.1589168,63.5602875 L31.1589168,63.5602875 Z M96.4255263,63.5580513 L76.5971197,62.1627058 C75.1271611,62.0590984 73.9808768,61.3465181 73.5296718,60.2560317 C73.0762295,59.161073 73.4013954,57.8603904 74.4216406,56.6886579 L85.9874032,43.4030601 C86.1872758,43.1734841 86.4565072,43.04677 86.7443834,43.04677 C86.9837831,43.04677 87.2239285,43.1369606 87.4379712,43.3076519 L88.8766065,44.4480785 C89.0682754,44.6008808 89.1876023,44.8341838 89.2129593,45.105501 C89.2398078,45.3954526 89.1503126,45.6891311 88.9735596,45.8918736 L78.1133175,58.3687374 L96.7014698,59.6679293 C97.3331568,59.7126519 97.6874086,60.2709392 97.6531021,60.762888 L97.5248256,62.6069504 C97.487536,63.1413857 97.0355852,63.5602875 96.4971225,63.5602875 L96.4255263,63.5580513 L96.4255263,63.5580513 Z M238.203071,78.267319 C237.634031,78.267319 237.170893,77.8044399 237.170893,77.2364627 L237.170893,72.4258002 C237.170893,71.8570777 237.634031,71.394944 238.203071,71.394944 L240.080233,71.394944 C240.648527,71.394944 241.111665,71.8570777 241.111665,72.4258002 L241.111665,77.2364627 C241.111665,77.8044399 240.648527,78.267319 240.080233,78.267319 L238.203071,78.267319 L238.203071,78.267319 Z M40.9116558,85.6532586 C40.6722562,85.6532586 40.4321107,85.5623226 40.2173223,85.3923767 L38.7794328,84.2512047 C38.5870181,84.0991478 38.4676912,83.8650994 38.44308,83.5937822 C38.4162314,83.304576 38.5057266,83.0108975 38.6824796,82.808155 L49.5427218,70.3312912 L30.9538236,69.0320992 C30.3221367,68.9873766 29.9686307,68.428344 30.0021914,67.9363952 L30.1312136,66.0923328 C30.1685033,65.5578975 30.6197082,65.1397411 31.1589168,65.1397411 L51.0589196,66.5373228 C52.5281324,66.6401848 53.6744167,67.3527651 54.1263674,68.4439969 C54.5798097,69.5389555 54.2546439,70.8388928 53.2336528,72.0113707 L41.6678903,85.2969684 C41.4687634,85.5265445 41.1995321,85.6532586 40.9116558,85.6532586 L40.9116558,85.6532586 Z M86.7443834,85.6532586 C86.4557614,85.6525132 86.1872758,85.5265445 85.9874032,85.2969684 L74.4216406,72.0113707 C73.4013954,70.8388928 73.0762295,69.5389555 73.5296718,68.4439969 C73.9808768,67.3527651 75.1271611,66.6401848 76.5971197,66.5373228 C76.5971197,66.5373228 96.4292553,65.1412319 96.4307469,65.1412319 C97.0385684,65.1412319 97.487536,65.5601337 97.5248256,66.0923328 L97.6531021,67.9363952 C97.6874086,68.428344 97.3331568,68.9873766 96.7014698,69.0320992 L78.1133175,70.3312912 L88.9735596,82.808155 C89.1503126,83.0108975 89.2398078,83.304576 89.2129593,83.5937822 C89.1876023,83.8658448 89.0682754,84.0991478 88.8766065,84.2512047 L87.4379712,85.3923767 C87.2239285,85.5623226 86.9830373,85.6532586 86.7443834,85.6532586 L86.7443834,85.6532586 Z M60.1710222,98.1584467 C59.698935,98.1584467 59.1850834,97.8021566 59.143319,97.2051097 L57.8434012,78.627336 L45.3595671,89.4815143 C45.1813225,89.6365527 44.9322275,89.7252526 44.6756747,89.7252526 C44.3646788,89.7252526 44.0872437,89.6007746 43.9149655,89.3846153 L42.7739017,87.9467833 C42.3957845,87.4712328 42.4345658,86.8749313 42.8693633,86.4970252 L56.1623831,74.9377204 C56.9835016,74.2236493 57.8642835,73.8464886 58.7115047,73.8464886 C60.3000444,73.8464886 61.5045006,75.1889124 61.6394892,77.1119848 L63.0356142,96.9293202 C63.0542591,97.1998921 62.9662555,97.4637555 62.7865193,97.672461 C62.6060373,97.8826573 62.3569423,98.008626 62.083982,98.0280058 L60.2388893,98.1562106 L60.1710222,98.1584467 L60.1710222,98.1584467 Z M67.4164041,98.1562106 L65.5713115,98.0280058 C65.2990969,98.008626 65.0492562,97.8826573 64.8687742,97.672461 C64.689038,97.4637555 64.6010344,97.1998921 64.620425,96.9293202 L66.0165501,77.1119848 C66.1515387,75.1889124 67.3552491,73.8464886 68.9445346,73.8464886 C69.79101,73.8464886 70.6725377,74.2236493 71.4936561,74.9377204 L84.786676,86.4970252 C85.2207277,86.8749313 85.2602547,87.4712328 84.8821375,87.9467833 L83.740328,89.3846153 C83.5680497,89.6007746 83.2913604,89.7252526 82.9803646,89.7252526 C82.7238117,89.7252526 82.4747167,89.6365527 82.2964721,89.4815143 L69.812638,78.627336 L68.5127203,97.2051097 C68.4702101,97.8021566 67.9571043,98.1584467 67.4850171,98.1584467 L67.4164041,98.1562106 L67.4164041,98.1562106 Z M139.198264,110.546611 C138.629224,110.546611 138.166086,110.082986 138.166086,109.515009 L138.166086,65.5333001 C138.166086,64.9645775 138.629224,64.5024439 139.198264,64.5024439 L141.075426,64.5024439 C141.64372,64.5024439 142.106858,64.9645775 142.106858,65.5333001 L142.106858,109.515009 C142.106858,110.082986 141.64372,110.546611 141.075426,110.546611 L139.198264,110.546611 L139.198264,110.546611 Z M216.148471,110.546611 C215.580177,110.546611 215.117039,110.082986 215.117039,109.515009 L215.117039,65.5333001 C215.117039,64.9645775 215.580177,64.5024439 216.148471,64.5024439 L218.025633,64.5024439 C218.594673,64.5024439 219.057811,64.9645775 219.057811,65.5333001 L219.057811,109.515009 C219.057811,110.082986 218.594673,110.546611 218.025633,110.546611 L216.148471,110.546611 L216.148471,110.546611 Z M227.175771,110.546611 C226.606731,110.546611 226.144339,110.082986 226.144339,109.515009 L226.144339,65.5333001 C226.144339,64.9645775 226.606731,64.5024439 227.175771,64.5024439 L229.052933,64.5024439 C229.621973,64.5024439 230.084365,64.9645775 230.084365,65.5333001 L230.084365,109.515009 C230.084365,110.082986 229.621973,110.546611 229.052933,110.546611 L227.175771,110.546611 L227.175771,110.546611 Z M238.203071,110.546611 C237.634031,110.546611 237.170893,110.082986 237.170893,109.515009 L237.170893,84.7096115 C237.170893,84.1408889 237.634031,83.6780098 238.203071,83.6780098 L240.080233,83.6780098 C240.648527,83.6780098 241.111665,84.1408889 241.111665,84.7096115 L241.111665,109.515009 C241.111665,110.082986 240.648527,110.546611 240.080233,110.546611 L238.203071,110.546611 L238.203071,110.546611 Z M116.887111,86.8309541 C111.138537,86.8309541 106.635437,91.3613549 106.635437,97.1454795 C106.635437,102.795436 111.233998,107.39143 116.887111,107.39143 C123.304663,107.39143 127.139532,102.181991 127.139532,97.1454795 C127.139532,91.3613549 122.635686,86.8309541 116.887111,86.8309541 L116.887111,86.8309541 Z M116.887111,111.330002 C109.061502,111.330002 102.694665,104.966719 102.694665,97.1454795 C102.694665,89.2862256 109.061502,82.8923826 116.887111,82.8923826 C122.100207,82.8923826 125.608418,85.7061804 127.235739,87.3840237 L127.412492,87.5658957 L128.318631,84.4867438 C128.484197,83.9232388 129.046525,83.5147723 129.655839,83.5147723 C129.931036,83.5147723 130.333765,83.5989999 130.685779,84.000758 C130.940095,84.2907096 131.079558,84.6812871 131.079558,85.0994436 L131.079558,109.515009 C131.079558,110.082986 130.617166,110.546611 130.048126,110.546611 L128.170964,110.546611 C127.601924,110.546611 127.139532,110.082986 127.139532,109.515009 L127.139532,106.930787 L126.885216,107.190924 C124.393521,109.74384 120.562381,111.330002 116.887111,111.330002 L116.887111,111.330002 Z M163.385832,86.8309541 C158.346507,86.8309541 153.134158,90.6890249 153.134158,97.1454795 C153.134158,102.890845 157.637258,107.39143 163.385832,107.39143 C168.980028,107.39143 173.70612,102.699283 173.70612,97.1454795 C173.70612,91.5544075 168.980028,86.8309541 163.385832,86.8309541 L163.385832,86.8309541 Z M163.385832,111.330002 C158.779067,111.330002 155.051592,109.035732 153.09836,106.889792 L152.927573,106.701211 L151.95655,109.668557 C151.764881,110.255914 151.17645,110.715811 150.617105,110.715811 C149.819106,110.715811 149.193386,110.09044 149.193386,109.292141 L149.193386,65.5318094 C149.193386,64.9638322 149.656523,64.5024439 150.225564,64.5024439 L152.10198,64.5024439 C152.67102,64.5024439 153.134158,64.9645775 153.134158,65.5333001 L153.134158,87.291597 L153.387727,87.0314605 C155.880169,84.4785446 159.710563,82.8923826 163.385832,82.8923826 C171.211442,82.8923826 177.578279,89.2862256 177.578279,97.1454795 C177.578279,104.966719 171.211442,111.330002 163.385832,111.330002 L163.385832,111.330002 Z M195.619019,86.834681 C191.33742,86.834681 187.460786,89.5307092 185.97442,93.5438184 L185.900587,93.742834 L205.338197,93.742834 L205.264364,93.5438184 C203.777998,89.5307092 199.90211,86.834681 195.619019,86.834681 L195.619019,86.834681 Z M195.619019,111.330002 C191.75581,111.330002 188.14095,109.807942 185.440432,107.04483 C182.741406,104.283209 181.305008,100.633098 181.396741,96.7675735 C181.574985,89.2094518 187.876193,82.9848093 195.443012,82.893128 L195.619019,82.8923826 C203.147057,82.8923826 209.385618,88.7696794 209.821907,96.2733886 C209.825636,96.3360002 209.828619,96.4373715 209.830856,96.5596133 C209.835331,96.8577641 209.723462,97.1387712 209.51464,97.3512036 C209.305072,97.5643814 209.024654,97.6814055 208.726336,97.6814055 L185.354666,97.6814055 L185.365853,97.8394254 C185.740987,103.193468 190.244833,107.387703 195.619019,107.387703 C199.25327,107.387703 202.545947,105.527988 204.426838,102.412313 C204.59837,102.127579 204.899671,101.957633 205.232295,101.957633 C205.449321,101.957633 205.653668,102.03068 205.822963,102.168574 L207.376451,103.43497 C207.784399,103.766662 207.877624,104.351038 207.593476,104.792301 C204.959334,108.885911 200.483083,111.330002 195.619019,111.330002 L195.619019,111.330002 Z" id="ALB_albelli_DIAP_RGB"></path>
        </g>
    </g>
</svg>